# xmcd CD database file
#
# Track frame offsets:
#	150
#	18616
#	45312
#	66014
#	86657
#	99209
#	116216
#	135152
#	157362
#	180210
#
# Disc length: 2622 seconds
#
# Revision: 1
# Processed by: cddbd v1.5.2PL0 Copyright (c) Steve Scherf et al.
# Submitted via: CDex 1.60beta1
#
DISCID=770a3c0a
DTITLE=Various Artist - Blues Lounge 
DYEAR=2004
DGENRE=Blues
TTITLE0=Midnight Dream
TTITLE1=John Henry's Blues
TTITLE2=Banal Reality
TTITLE3=Parchman Blues
TTITLE4=Long Way To Go
TTITLE5=Run On
TTITLE6=Gonna Be(Ben Human Remix)
TTITLE7=Camioux(Feat.Wayne Martin)
TTITLE8=Pablo's Blues
TTITLE9=Death Letter (Organized Noize Remix)
EXTD=YEAR: 2004
EXTT0=
EXTT1=
EXTT2=
EXTT3=
EXTT4=
EXTT5=
EXTT6=
EXTT7=
EXTT8=
EXTT9=
PLAYORDER=
